<svg xmlns="http://www.w3.org/2000/svg" xmlns:xlink="http://www.w3.org/1999/xlink" id="Layer_2" viewBox="0 0 346.54 90.88"><defs><style>.cls-1{fill:#1b2a51;}.cls-2{fill:url(#linear-gradient);}.cls-3{fill:#333;}</style><linearGradient id="linear-gradient" x1="76.85" y1="99.23" x2="41.5" y2="9.82" gradientUnits="userSpaceOnUse"><stop offset=".11" stop-color="#54524c"></stop><stop offset=".34" stop-color="#79766b"></stop><stop offset=".61" stop-color="#9b9889"></stop><stop offset=".82" stop-color="#b1ad9c"></stop><stop offset=".96" stop-color="#b9b5a3"></stop></linearGradient></defs><g id="Layer_1-2"><polygon class="cls-1" points="46.84 30.16 33.48 67.71 41.17 77.11 41.17 90.88 0 90.88 35.03 0 46.84 0 58.66 0 46.84 30.16"></polygon><polygon class="cls-2" points="52.51 90.88 93.68 90.88 58.65 0 58.65 0 58.65 0 46.84 0 46.84 0 35.03 0 35.02 0 46.84 30.16 60.2 67.71 52.51 77.11 52.51 90.88"></polygon><path class="cls-3" d="M127.11,22.48h3.41l9.22,21.11h-3.89l-2.12-5.06h-9.91l-2.16,5.06h-3.77l9.22-21.11ZM132.38,35.26l-3.62-8.38-3.59,8.38h7.21Z"></path><path class="cls-3" d="M145.44,22.63h9.34c2.63,0,4.7.78,6.05,2.1,1.11,1.14,1.74,2.69,1.74,4.52v.06c0,3.44-2.07,5.51-4.97,6.35l5.66,7.93h-4.37l-5.15-7.3h-4.61v7.3h-3.68v-20.96ZM154.51,33.01c2.63,0,4.31-1.38,4.31-3.5v-.06c0-2.25-1.62-3.47-4.34-3.47h-5.36v7.04h5.39Z"></path><path class="cls-3" d="M169.18,22.63h9.34c2.63,0,4.7.78,6.05,2.1,1.11,1.14,1.74,2.69,1.74,4.52v.06c0,3.44-2.07,5.51-4.97,6.35l5.66,7.93h-4.37l-5.15-7.3h-4.61v7.3h-3.68v-20.96ZM178.25,33.01c2.63,0,4.31-1.38,4.31-3.5v-.06c0-2.25-1.62-3.47-4.34-3.47h-5.36v7.04h5.39Z"></path><path class="cls-3" d="M192,33.16v-.06c0-5.9,4.55-10.84,10.99-10.84s10.93,4.88,10.93,10.78v.06c0,5.9-4.55,10.84-10.99,10.84s-10.93-4.88-10.93-10.78ZM210.05,33.16v-.06c0-4.07-2.96-7.42-7.12-7.42s-7.07,3.29-7.07,7.36v.06c0,4.07,2.96,7.42,7.13,7.42s7.06-3.29,7.06-7.36Z"></path><path class="cls-3" d="M217.69,22.63h3.98l5,15.54,5.15-15.6h3.11l5.15,15.6,5-15.54h3.86l-7.28,21.11h-3.2l-5.15-15.06-5.15,15.06h-3.2l-7.27-21.11Z"></path><path class="cls-3" d="M254.82,22.63h3.68v8.71h10v-8.71h3.68v20.96h-3.68v-8.83h-10v8.83h-3.68v-20.96Z"></path><path class="cls-3" d="M279.68,22.63h15.54v3.29h-11.86v5.45h10.51v3.32h-10.51v5.6h12v3.29h-15.69v-20.96Z"></path><path class="cls-3" d="M309.26,22.48h3.41l9.22,21.11h-3.89l-2.12-5.06h-9.91l-2.16,5.06h-3.77l9.22-21.11ZM314.53,35.26l-3.62-8.38-3.59,8.38h7.21Z"></path><path class="cls-3" d="M327.59,22.63h7.81c6.59,0,11.14,4.52,11.14,10.42v.06c0,5.9-4.55,10.48-11.14,10.48h-7.81v-20.96ZM331.27,25.98v14.25h4.13c4.4,0,7.28-2.96,7.28-7.07v-.06c0-4.1-2.87-7.13-7.28-7.13h-4.13Z"></path><path class="cls-3" d="M118.46,53.29h1.15v15.54h-1.15v-15.54Z"></path><path class="cls-3" d="M127.09,53.29h1.09l10.72,13.52v-13.52h1.11v15.54h-.87l-10.95-13.81v13.81h-1.11v-15.54Z"></path><path class="cls-3" d="M151.53,54.36h-5.42v-1.07h11.99v1.07h-5.42v14.48h-1.15v-14.48Z"></path><path class="cls-3" d="M164.21,53.29h11.06v1.07h-9.9v6.11h8.9v1.07h-8.9v6.24h10.01v1.07h-11.17v-15.54Z"></path><path class="cls-3" d="M182.9,53.29h6.53c1.91,0,3.44.6,4.37,1.53.73.73,1.18,1.78,1.18,2.89v.04c0,2.6-1.93,4.08-4.55,4.44l5.13,6.64h-1.47l-4.95-6.44h-5.08v6.44h-1.16v-15.54ZM189.29,61.35c2.6,0,4.53-1.31,4.53-3.55v-.04c0-2.09-1.64-3.4-4.46-3.4h-5.31v6.99h5.24Z"></path><path class="cls-3" d="M202.32,53.29h1.09l6.24,9.19,6.24-9.19h1.09v15.54h-1.15v-13.5l-6.15,8.95h-.09l-6.15-8.95v13.5h-1.11v-15.54Z"></path><path class="cls-3" d="M224.75,53.29h11.06v1.07h-9.9v6.11h8.9v1.07h-8.9v6.24h10.01v1.07h-11.17v-15.54Z"></path><path class="cls-3" d="M242.33,53.29h5.17c4.88,0,8.26,3.35,8.26,7.73v.04c0,4.37-3.38,7.77-8.26,7.77h-5.17v-15.54ZM243.48,54.36v13.41h4.02c4.33,0,7.06-2.95,7.06-6.66v-.04c0-3.69-2.73-6.71-7.06-6.71h-4.02Z"></path><path class="cls-3" d="M261.66,53.29h1.15v15.54h-1.15v-15.54Z"></path><path class="cls-3" d="M275.76,53.18h1.11l7.24,15.65h-1.27l-1.98-4.35h-9.17l-1.98,4.35h-1.2l7.24-15.65ZM280.38,63.44l-4.08-8.99-4.11,8.99h8.19Z"></path><path class="cls-3" d="M289.88,53.29h6.53c1.91,0,3.44.6,4.37,1.53.73.73,1.18,1.78,1.18,2.89v.04c0,2.6-1.93,4.08-4.55,4.44l5.13,6.64h-1.46l-4.95-6.44h-5.08v6.44h-1.16v-15.54ZM296.27,61.35c2.6,0,4.53-1.31,4.53-3.55v-.04c0-2.09-1.64-3.4-4.46-3.4h-5.31v6.99h5.24Z"></path><path class="cls-3" d="M309.01,53.29h1.15v15.54h-1.15v-15.54Z"></path><path class="cls-3" d="M317.2,53.29h11.06v1.07h-9.9v6.11h8.9v1.07h-8.9v6.24h10.01v1.07h-11.17v-15.54Z"></path><path class="cls-3" d="M332.9,66.57l.75-.87c1.71,1.58,3.29,2.31,5.57,2.31s3.93-1.31,3.93-3.09v-.04c0-1.64-.87-2.6-4.4-3.31-3.73-.75-5.24-2.02-5.24-4.37v-.04c0-2.31,2.11-4.08,5-4.08,2.26,0,3.75.62,5.33,1.89l-.73.91c-1.46-1.27-2.93-1.75-4.64-1.75-2.29,0-3.8,1.31-3.8,2.93v.04c0,1.64.84,2.64,4.53,3.4,3.6.73,5.11,2.02,5.11,4.28v.04c0,2.51-2.15,4.24-5.15,4.24-2.49,0-4.4-.82-6.26-2.49Z"></path></g></svg>